<svg width="30" height="28" viewBox="0 0 30 28" fill="none" xmlns="http://www.w3.org/2000/svg">
<path d="M6.90581 3.69968L6.41525 24.7935L8.37747 23.5671L10.8302 23.0766L12.5472 23.5671L13.7736 24.7935L15 26.7557L16.2263 24.5482L17.2074 23.5671L18.9244 23.0766H20.6413L23.3394 25.0388L23.0941 6.64301V3.69968L20.6413 4.92607L18.6791 5.17134L17.2074 4.68079L15.9811 3.4544L15 1.49219L14.5094 2.22802L13.7736 3.4544L12.3019 4.92607L10.0944 5.17134L8.37747 4.43551L6.90581 3.69968Z" fill="#FFDC00"/>
<path d="M21.3774 4.92607C15.4907 7.28073 14.6731 3.61792 15.0002 1.49219L15.9811 3.4544L17.9433 4.92607H19.4149L21.6224 4.43551L23.1557 3.69968V25.0388L20.6413 23.3218L18.9244 23.0766L17.2074 23.8124L15.7358 25.2841L14.7547 26.7557L14.5094 26.0199C15.6867 22.0955 19.5786 22.586 21.3774 23.3218V4.92607Z" fill="#FCC201"/>
<path d="M7.64167 20.8671L3.47196 16.6973L3.22668 14.9804L3.47196 13.2635L3.96252 11.5465L4.69835 10.3201L5.67946 9.33903L6.41529 9.09375L7.3964 9.5843L7.88695 9.82958L9.11334 9.09375L11.3208 9.33903L13.0378 10.5654L14.7547 12.7729V15.2257L13.7736 16.4521L11.8114 18.169L10.0944 19.3954L7.64167 20.8671Z" fill="#C81F1D"/>
<path d="M7.64168 20.868L3.47197 16.6982L1.26447 18.6605L1.0192 19.3963L1.50975 19.8868L2.24558 20.6227L3.47197 21.8491L4.2078 22.8302L4.94363 23.0754L5.67946 22.5849L6.90585 21.6038L7.64168 20.868Z" fill="#F34436"/>
<path d="M8.37747 12.5286C8.54097 11.7928 9.26047 10.5173 10.8302 11.3022" stroke="#F4F5F9" stroke-linecap="round"/>
<path d="M7.64164 20.868L6.41525 19.6416" stroke="black" stroke-linecap="round" stroke-linejoin="round"/>
<path d="M3.47198 16.6982L5.67948 18.9057" stroke="black" stroke-linecap="round" stroke-linejoin="round"/>
<path d="M12.0565 17.9222C11.664 18.7071 8.94966 20.2114 7.6415 20.8655L6.16983 22.3372C4.99252 23.907 3.8806 22.8277 3.47181 22.0919L1.50917 20.1296C0.72428 19.7372 1.01861 18.985 1.26389 18.658L3.22653 16.6958C3.03031 14.9298 3.30829 13.18 3.47181 12.5259C5.434 7.81658 7.06922 8.76512 7.6415 9.82805M12.0565 17.9222C13.6099 17.1046 16.2262 14.7826 14.264 12.0355C13.2829 10.4003 10.5848 7.66961 7.6415 9.82805M12.0565 17.9222C10.0942 17.726 8.29555 16.5323 7.6415 15.9599C5.28674 13.9977 6.66039 11.0544 7.6415 9.82805" stroke="black" stroke-linecap="round" stroke-linejoin="round"/>
<path d="M2.24551 18.1699L4.20773 20.1321" stroke="black" stroke-linecap="round" stroke-linejoin="round"/>
<path d="M22.3238 20.9999L26.4935 16.8302L26.7387 15.1132L26.4935 13.3963L26.0029 11.6793L25.2671 10.4529L24.286 9.47184L23.5501 9.22656L22.569 9.71712L22.0785 9.96239L20.8521 9.22656L18.6446 9.47184L16.9277 10.6982L15.2107 12.9057V15.3585L16.1918 16.5849L18.154 18.3018L19.871 19.5282L22.3238 20.9999Z" fill="#0576BC"/>
<path d="M22.3238 21.0008L26.4935 16.8311L28.701 18.7933L28.9463 19.5291L28.4557 20.0197L27.7199 20.7555L26.4935 21.9819L25.7577 22.963L25.0218 23.2083L24.286 22.7177L23.0596 21.7366L22.3238 21.0008Z" fill="#00ABF5"/>
<path d="M21.5879 12.6614C21.4244 11.9256 20.7049 10.6501 19.1352 11.435" stroke="#F4F5F9" stroke-linecap="round"/>
<path d="M22.3238 21.0008L23.5502 19.7744" stroke="black" stroke-linecap="round" stroke-linejoin="round"/>
<path d="M26.4935 16.8311L24.286 19.0385" stroke="black" stroke-linecap="round" stroke-linejoin="round"/>
<path d="M17.909 18.056C18.3014 18.8409 21.0159 20.3453 22.324 20.9993L23.7956 22.471C24.973 24.0407 26.0849 22.9615 26.4937 22.2257L28.4563 20.2634C29.2412 19.871 28.9469 19.1188 28.7016 18.7918L26.739 16.8295C26.9352 15.0636 26.6572 13.3138 26.4937 12.6597C24.5315 7.95037 22.8963 8.89891 22.324 9.96184M17.909 18.056C16.3556 17.2384 13.7393 14.9164 15.7015 12.1693C16.6826 10.5342 19.3806 7.8034 22.324 9.96184M17.909 18.056C19.8713 17.8598 21.67 16.666 22.324 16.0937C24.6788 14.1315 23.3051 11.1882 22.324 9.96184" stroke="black" stroke-linecap="round" stroke-linejoin="round"/>
<path d="M27.7199 18.3037L25.7577 20.2659" stroke="black" stroke-linecap="round" stroke-linejoin="round"/>
<path d="M5.92465 25.5284C7.96864 23.4027 12.6452 20.721 14.9999 27.0001C15.8992 24.3837 18.8753 20.3774 23.5846 25.283" stroke="black" stroke-linecap="round" stroke-linejoin="round"/>
<path d="M6.41523 7.3772C6.90578 6.31432 7.5435 3.89427 6.16995 2.71694C8.21394 4.76092 12.8415 7.27909 14.9999 1C15.7358 3.53453 18.4829 7.47532 23.5846 2.96222C23.1759 3.61629 22.5545 5.36593 23.3394 7.13193" stroke="black" stroke-linecap="round" stroke-linejoin="round"/>
</svg>
